grf
version=1
nRows=56
nColumns=19
inDegrees=yes
endheader
time	ground_force_1_vx	ground_force_1_vy	ground_force_1_vz	ground_force_1_px	ground_force_1_py	ground_force_1_pz	ground_moment_1_mx	ground_moment_1_my	ground_moment_1_mz	ground_force_2_vx	ground_force_2_vy	ground_force_2_vz	ground_force_2_px	ground_force_2_py	ground_force_2_pz	ground_moment_2_mx	ground_moment_2_my	ground_moment_2_mz
0.900000	0.000000	0.000000	0.000000	0.000000	0.000000	0.000000	0.000000	0.000000	0.000000	25.175245	517.985352	-20.156120	0.215638	0.000000	0.261967	0.000000	-0.094511	-0.000000
0.901000	0.000000	0.000000	0.000000	0.000000	0.000000	0.000000	0.000000	0.000000	0.000000	24.345106	517.820374	-20.293941	0.213752	0.000000	0.261209	0.000000	-0.019563	-0.000000
0.902000	0.000000	0.000000	0.000000	0.000000	0.000000	0.000000	0.000000	0.000000	0.000000	23.890503	519.469910	-20.293941	0.214620	0.000000	0.261434	0.000000	-0.047166	-0.000000
0.903000	0.000000	0.000000	0.000000	0.000000	0.000000	0.000000	0.000000	0.000000	0.000000	23.258015	518.150269	-20.156120	0.213008	0.000000	0.261412	0.000000	-0.004966	-0.000000
0.904000	0.000000	0.000000	0.000000	0.000000	0.000000	0.000000	0.000000	0.000000	0.000000	22.961536	517.325439	-19.388258	0.213097	0.000000	0.261809	0.000000	-0.140173	-0.000000
0.905000	0.000000	0.000000	0.000000	0.000000	0.000000	0.000000	0.000000	0.000000	0.000000	22.842943	515.016052	-19.683590	0.211672	0.000000	0.262021	0.000000	-0.143117	-0.000000
0.906000	0.000000	0.000000	0.000000	0.000000	0.000000	0.000000	0.000000	0.000000	0.000000	22.329046	520.954590	-19.270126	0.212442	0.000000	0.260896	0.000000	-0.142934	-0.000000
0.907000	0.000000	0.000000	0.000000	0.000000	0.000000	0.000000	0.000000	0.000000	0.000000	21.953506	515.181030	-19.585146	0.211235	0.000000	0.262241	0.000000	-0.070848	-0.000000
0.908000	0.000000	0.000000	0.000000	0.000000	0.000000	0.000000	0.000000	0.000000	0.000000	21.637262	515.840820	-19.112617	0.211383	0.000000	0.261398	0.000000	-0.189592	-0.000000
0.909000	0.000000	0.000000	0.000000	0.000000	0.000000	0.000000	0.000000	0.000000	0.000000	21.597731	516.253235	-19.348881	0.210907	0.000000	0.261385	0.000000	-0.207213	-0.000000
0.910000	0.000000	0.000000	0.000000	0.000000	0.000000	0.000000	0.000000	0.000000	0.000000	20.886181	517.160522	-19.151993	0.211478	0.000000	0.261544	0.000000	-0.229949	-0.000000
0.911000	0.000000	0.000000	0.000000	0.000000	0.000000	0.000000	0.000000	0.000000	0.000000	20.530407	513.283936	-19.289816	0.209523	0.000000	0.262286	0.000000	-0.156815	-0.000000
0.912000	0.000000	0.000000	0.000000	0.000000	0.000000	0.000000	0.000000	0.000000	0.000000	19.759560	516.253235	-18.384132	0.210421	0.000000	0.261167	0.000000	-0.278874	-0.000000
0.913000	0.000000	0.000000	0.000000	0.000000	0.000000	0.000000	0.000000	0.000000	0.000000	19.482849	517.490417	-18.915728	0.207964	0.000000	0.260264	0.000000	-0.327479	-0.000000
0.914000	0.000000	0.000000	0.000000	0.000000	0.000000	0.000000	0.000000	0.000000	0.000000	19.976978	517.078064	-19.092926	0.209754	0.000000	0.260239	0.000000	-0.415743	-0.000000
0.915000	0.000000	0.000000	0.000000	0.000000	0.000000	0.000000	0.000000	0.000000	0.000000	18.810827	516.500671	-18.088800	0.206321	0.000000	0.260953	0.000000	-0.187210	-0.000000
0.916000	0.000000	0.000000	0.000000	0.000000	0.000000	0.000000	0.000000	0.000000	0.000000	17.763269	517.160522	-17.635958	0.209599	0.000000	0.260572	0.000000	-0.305197	-0.000000
0.917000	0.000000	0.000000	0.000000	0.000000	0.000000	0.000000	0.000000	0.000000	0.000000	18.494583	506.685608	-18.187244	0.207244	0.000000	0.262496	0.000000	-0.480852	-0.000000
0.918000	0.000000	0.000000	0.000000	0.000000	0.000000	0.000000	0.000000	0.000000	0.000000	17.802799	507.262909	-18.443197	0.205042	0.000000	0.262499	0.000000	-0.357509	-0.000000
0.919000	0.000000	0.000000	0.000000	0.000000	0.000000	0.000000	0.000000	0.000000	0.000000	17.031954	513.201477	-16.887785	0.204592	0.000000	0.262188	0.000000	-0.477200	-0.000000
0.920000	0.000000	0.000000	0.000000	0.000000	0.000000	0.000000	0.000000	0.000000	0.000000	17.288902	511.386932	-17.931290	0.205696	0.000000	0.261616	0.000000	-0.442775	-0.000000
0.921000	0.000000	0.000000	0.000000	0.000000	0.000000	0.000000	0.000000	0.000000	0.000000	16.083220	519.387451	-17.439072	0.206817	0.000000	0.260997	0.000000	-0.513068	-0.000000
0.922000	0.000000	0.000000	0.000000	0.000000	0.000000	0.000000	0.000000	0.000000	0.000000	15.786741	518.892578	-17.104362	0.207083	0.000000	0.261315	0.000000	-0.581417	-0.000000
0.923000	0.000000	0.000000	0.000000	0.000000	0.000000	0.000000	0.000000	0.000000	0.000000	15.865802	514.438660	-17.360315	0.205195	0.000000	0.260283	0.000000	-0.553437	-0.000000
0.924000	0.000000	0.000000	0.000000	0.000000	0.000000	0.000000	0.000000	0.000000	0.000000	14.798477	518.397705	-16.671209	0.205886	0.000000	0.260611	0.000000	-0.606325	-0.000000
0.925000	0.000000	0.000000	0.000000	0.000000	0.000000	0.000000	0.000000	0.000000	0.000000	14.600825	516.665649	-16.671211	0.204499	0.000000	0.260603	0.000000	-0.577374	-0.000000
0.926000	0.000000	0.000000	0.000000	0.000000	0.000000	0.000000	0.000000	0.000000	0.000000	14.304346	517.490479	-16.809031	0.205007	0.000000	0.261029	0.000000	-0.614534	-0.000000
0.927000	0.000000	0.000000	0.000000	0.000000	0.000000	0.000000	0.000000	0.000000	0.000000	14.185754	514.851074	-16.789341	0.203164	0.000000	0.261536	0.000000	-0.677586	-0.000000
0.928000	0.000000	0.000000	0.000000	0.000000	0.000000	0.000000	0.000000	0.000000	0.000000	13.395144	518.480225	-16.336500	0.205170	0.000000	0.260612	0.000000	-0.720835	-0.000000
0.929000	0.000000	0.000000	0.000000	0.000000	0.000000	0.000000	0.000000	0.000000	0.000000	13.237021	518.150269	-16.415255	0.204331	0.000000	0.260223	0.000000	-0.739995	-0.000000
0.930000	0.000000	0.000000	0.000000	0.000000	0.000000	0.000000	0.000000	0.000000	0.000000	12.901011	518.727600	-16.001791	0.203294	0.000000	0.260556	0.000000	-0.783310	-0.000000
0.931000	0.000000	0.000000	0.000000	0.000000	0.000000	0.000000	0.000000	0.000000	0.000000	12.248757	518.892578	-16.139614	0.203138	0.000000	0.260792	0.000000	-0.814308	-0.000000
0.932000	0.000000	0.000000	0.000000	0.000000	0.000000	0.000000	0.000000	0.000000	0.000000	12.031339	516.088257	-15.765527	0.202784	0.000000	0.260849	0.000000	-0.791580	-0.000000
0.933000	0.000000	0.000000	0.000000	0.000000	0.000000	0.000000	0.000000	0.000000	0.000000	11.715095	514.438660	-15.608016	0.201546	0.000000	0.260943	0.000000	-0.807187	-0.000000
0.934000	0.000000	0.000000	0.000000	0.000000	0.000000	0.000000	0.000000	0.000000	0.000000	11.675564	514.933533	-15.627706	0.200932	0.000000	0.261267	0.000000	-0.838827	-0.000000
0.935000	0.000000	0.000000	0.000000	0.000000	0.000000	0.000000	0.000000	0.000000	0.000000	11.734860	515.098511	-15.923038	0.202186	0.000000	0.261029	0.000000	-0.969042	-0.000000
0.936000	0.000000	0.000000	0.000000	0.000000	0.000000	0.000000	0.000000	0.000000	0.000000	10.845423	516.665649	-15.785216	0.201859	0.000000	0.261220	0.000000	-0.901575	-0.000000
0.937000	0.000000	0.000000	0.000000	0.000000	0.000000	0.000000	0.000000	0.000000	0.000000	9.995517	516.665649	-15.430818	0.201398	0.000000	0.260371	0.000000	-0.945117	-0.000000
0.938000	0.000000	0.000000	0.000000	0.000000	0.000000	0.000000	0.000000	0.000000	0.000000	10.054813	515.345947	-15.548950	0.199807	0.000000	0.260400	0.000000	-1.001684	-0.000000
0.939000	0.000000	0.000000	0.000000	0.000000	0.000000	0.000000	0.000000	0.000000	0.000000	9.540915	518.562683	-15.273307	0.199714	0.000000	0.260374	0.000000	-0.969842	-0.000000
0.940000	0.000000	0.000000	0.000000	0.000000	0.000000	0.000000	0.000000	0.000000	0.000000	8.750304	518.480225	-15.509573	0.199531	0.000000	0.260305	0.000000	-1.047830	-0.000000
0.941000	0.000000	0.000000	0.000000	0.000000	0.000000	0.000000	0.000000	0.000000	0.000000	7.860868	520.789612	-14.918910	0.200339	0.000000	0.260129	0.000000	-1.060324	-0.000000
0.942000	0.000000	0.000000	0.000000	0.000000	0.000000	0.000000	0.000000	0.000000	0.000000	7.544623	519.552429	-14.722023	0.199470	0.000000	0.260957	0.000000	-1.063683	-0.000000
0.943000	0.000000	0.000000	0.000000	0.000000	0.000000	0.000000	0.000000	0.000000	0.000000	6.931900	523.676453	-14.781088	0.199766	0.000000	0.259980	0.000000	-1.104856	-0.000000
0.944000	0.000000	0.000000	0.000000	0.000000	0.000000	0.000000	0.000000	0.000000	0.000000	6.615655	524.666199	-15.292997	0.199927	0.000000	0.259821	0.000000	-1.146332	-0.000000
0.945000	0.000000	0.000000	0.000000	0.000000	0.000000	0.000000	0.000000	0.000000	0.000000	6.833073	520.954590	-15.627706	0.197998	0.000000	0.260008	0.000000	-1.112782	-0.000000
0.946000	0.000000	0.000000	0.000000	0.000000	0.000000	0.000000	0.000000	0.000000	0.000000	6.141288	519.717407	-15.608016	0.197344	0.000000	0.260058	0.000000	-1.082202	-0.000000
0.947000	0.000000	0.000000	0.000000	0.000000	0.000000	0.000000	0.000000	0.000000	0.000000	5.271617	525.408508	-15.371752	0.198661	0.000000	0.260276	0.000000	-1.091368	-0.000000
0.948000	0.000000	0.000000	0.000000	0.000000	0.000000	0.000000	0.000000	0.000000	0.000000	4.362414	527.058105	-16.395567	0.197770	0.000000	0.259508	0.000000	-1.009548	-0.000000
0.949000	0.000000	0.000000	0.000000	0.000000	0.000000	0.000000	0.000000	0.000000	0.000000	3.611334	519.964844	-17.025608	0.194658	0.000000	0.259311	0.000000	-0.914310	-0.000000
0.950000	0.000000	0.000000	0.000000	0.000000	0.000000	0.000000	0.000000	0.000000	0.000000	3.611333	523.346558	-17.202805	0.195685	0.000000	0.260708	0.000000	-0.958641	-0.000000
0.951000	0.000000	0.000000	0.000000	0.000000	0.000000	0.000000	0.000000	0.000000	0.000000	3.631099	521.861877	-17.852535	0.196149	0.000000	0.260405	0.000000	-0.869396	-0.000000
0.952000	0.000000	0.000000	0.000000	0.000000	0.000000	0.000000	0.000000	0.000000	0.000000	3.413681	519.304993	-18.088799	0.193553	0.000000	0.260853	0.000000	-0.903581	-0.000000
0.953000	0.000000	0.000000	0.000000	0.000000	0.000000	0.000000	0.000000	0.000000	0.000000	3.136967	518.810120	-17.360315	0.194889	0.000000	0.261282	0.000000	-1.044945	-0.000000
0.954000	0.000000	0.000000	0.000000	0.000000	0.000000	0.000000	0.000000	0.000000	0.000000	1.733633	530.439758	-16.966541	0.195110	0.000000	0.260179	0.000000	-0.944488	-0.000000
0.955000	0.000000	0.000000	0.000000	0.000000	0.000000	0.000000	0.000000	0.000000	0.000000	2.207999	522.274231	-17.557203	0.194113	0.000000	0.259683	0.000000	-1.105485	-0.000000
